<svg xmlns="http://www.w3.org/2000/svg" viewBox="0 0 1280 720"><defs><linearGradient id="bg" x1="0" y1="0" x2="1" y2="1"><stop offset="0%" stop-color="#f8f4ed"/><stop offset="50%" stop-color="#fbfaf7"/><stop offset="100%" stop-color="#eef4ef"/></linearGradient><filter id="blur"><feGaussianBlur stdDeviation="30"/></filter><filter id="shadow" x="-20%" y="-20%" width="140%" height="140%"><feDropShadow dx="0" dy="8" stdDeviation="10" flood-color="#243746" flood-opacity=".12"/></filter></defs><rect width="1280" height="720" fill="url(#bg)"/><g opacity=".25" filter="url(#blur)"><circle cx="640" cy="360" r="300" fill="#b7a5ca"/></g><g filter="url(#shadow)"><rect x="335" y="355" width="610" height="235" rx="38" fill="#e7a57f" stroke="#805b46" stroke-width="5"/><rect x="420" y="275" width="440" height="105" rx="28" fill="#eab08d" stroke="#805b46" stroke-width="5"/><path d="M500 275V230H780V275" fill="none" stroke="#805b46" stroke-width="10"/></g><g filter="url(#shadow)"><circle cx="460" cy="290" r="62" fill="#dcebf1"/><path d="M430 300 Q460 250 490 300" fill="none" stroke="#6d9eb4" stroke-width="9"/><circle cx="575" cy="250" r="62" fill="#dce8da"/><path d="M565 210V280M565 215L620 200" stroke="#35556e" stroke-width="8"/><circle cx="545" cy="286" r="13" fill="#35556e"/><circle cx="700" cy="280" r="62" fill="#f6e6bd"/><rect x="672" y="258" width="58" height="45" rx="8" fill="#fff" stroke="#86623e" stroke-width="4"/><circle cx="820" cy="250" r="62" fill="#e7dff0"/><rect x="795" y="218" width="52" height="66" rx="8" fill="#fff"/><path d="M806 252 L818 264 L838 238" fill="none" stroke="#7d9e77" stroke-width="7"/></g><circle cx="170" cy="160" r="105" fill="#40586a" opacity=".35"/></svg>