<svg xmlns="http://www.w3.org/2000/svg" viewBox="0 0 1280 720">
<defs>
  <linearGradient id="bg" x1="0" y1="0" x2="1" y2="1"><stop offset="0%" stop-color="#f8f4ed"/><stop offset="50%" stop-color="#fbfaf7"/><stop offset="100%" stop-color="#eef4ef"/></linearGradient>
  <filter id="blur"><feGaussianBlur stdDeviation="30"/></filter><filter id="shadow" x="-20%" y="-20%" width="140%" height="140%"><feDropShadow dx="0" dy="8" stdDeviation="10" flood-color="#243746" flood-opacity=".12"/></filter>
</defs>
<rect width="1280" height="720" fill="url(#bg)"/>
<g opacity=".35" filter="url(#blur)"><circle cx="260" cy="360" r="220" fill="#8bb9cb"/><circle cx="1010" cy="360" r="220" fill="#b8a4ca"/></g>
<g filter="url(#shadow)"><rect x="110" y="190" width="350" height="340" rx="42" fill="#d9e9f0"/><rect x="200" y="255" width="170" height="130" rx="22" fill="#2c4152"/><circle cx="285" cy="320" r="48" fill="#80b3c8"/><circle cx="285" cy="320" r="19" fill="#f9fbfb"/></g>
<ellipse cx="640" cy="293" rx="34.2" ry="37.8" fill="#4a352d"/><circle cx="663.4" cy="261.5" r="16.2" fill="#4a352d"/><ellipse cx="640" cy="303.8" rx="30.6" ry="34.2" fill="#e3b58e"/><rect x="584.2" y="341.6" width="111.6" height="133.2" rx="27" fill="#5b9c99"/><rect x="595" y="459.5" width="39.6" height="86.4" rx="16.2" fill="#2c4152"/><rect x="645.4" y="459.5" width="39.6" height="86.4" rx="16.2" fill="#2c4152"/><circle cx="630.1" cy="300.2" r="2.7" fill="#2c4152"/><circle cx="649.9" cy="300.2" r="2.7" fill="#2c4152"/><path d="M631 315.5 Q640 321.8 649 315.5" fill="none" stroke="#7b5543" stroke-width="1.8"/><path d="M599.5 369.5 L575.2 435.2" fill="none" stroke="#e3b58e" stroke-width="10.8" stroke-linecap="round"/><path d="M680.5 369.5 L704.8 435.2" fill="none" stroke="#e3b58e" stroke-width="10.8" stroke-linecap="round"/>
<line x1="565" y1="165" x2="565" y2="560" stroke="#8ea0aa" stroke-width="3" opacity=".55"/>
<g filter="url(#shadow)" fill="#e6def0"><circle cx="925" cy="270" r="95"/><circle cx="1010" cy="255" r="112"/><circle cx="1075" cy="355" r="105"/><circle cx="970" cy="400" r="122"/></g>
<path d="M880 360 Q930 275 985 345 T1080 300" fill="none" stroke="#7f6a95" stroke-width="10" stroke-linecap="round"/><circle cx="900" cy="360" r="10" fill="#7f6a95"/><circle cx="1080" cy="300" r="10" fill="#7f6a95"/>
</svg>