<svg xmlns="http://www.w3.org/2000/svg" viewBox="0 0 1280 720"><defs><linearGradient id="bg" x1="0" y1="0" x2="1" y2="1"><stop offset="0%" stop-color="#f8f4ed"/><stop offset="50%" stop-color="#fbfaf7"/><stop offset="100%" stop-color="#eef4ef"/></linearGradient><filter id="blur"><feGaussianBlur stdDeviation="30"/></filter><filter id="shadow" x="-20%" y="-20%" width="140%" height="140%"><feDropShadow dx="0" dy="8" stdDeviation="10" flood-color="#243746" flood-opacity=".12"/></filter></defs><rect width="1280" height="720" fill="url(#bg)"/><g opacity=".35" filter="url(#blur)"><circle cx="260" cy="210" r="230" fill="#41566a"/><circle cx="920" cy="300" r="260" fill="#e8c87d"/></g><path d="M70 155 Q240 60 480 160 Q400 250 115 280Z" fill="#34495a" opacity=".82"/><g stroke="#6ea4bc" stroke-width="6" opacity=".8"><path d="M160 230l-22 70M235 210l-20 76M315 220l-20 70M390 205l-18 75"/></g><path d="M390 345 Q640 120 890 345Z" fill="#e2b35e" opacity=".92" filter="url(#shadow)"/><line x1="640" y1="340" x2="640" y2="610" stroke="#7c6048" stroke-width="10"/><ellipse cx="640" cy="416.4" rx="27.36" ry="30.24" fill="#4a352d"/><circle cx="658.72" cy="391.2" r="12.96" fill="#4a352d"/><ellipse cx="640" cy="425.04" rx="24.48" ry="27.36" fill="#e3b58e"/><rect x="595.36" y="455.28" width="89.28" height="106.56" rx="21.6" fill="#5b9c99"/><rect x="604" y="549.6" width="31.68" height="69.12" rx="12.96" fill="#2c4152"/><rect x="644.32" y="549.6" width="31.68" height="69.12" rx="12.96" fill="#2c4152"/><path d="M607.6 477.6 L588.16 530.16M672.4 477.6 L691.84 530.16" fill="none" stroke="#e3b58e" stroke-width="8.64" stroke-linecap="round"/><g filter="url(#shadow)"><rect x="850" y="500" width="220" height="120" rx="24" fill="#e5a47e"/><path d="M900 500V465H1020V500" fill="none" stroke="#805b46" stroke-width="8"/></g></svg>