<svg xmlns="http://www.w3.org/2000/svg" viewBox="0 0 1280 720"><defs><linearGradient id="bg" x1="0" y1="0" x2="1" y2="1"><stop offset="0%" stop-color="#f8f4ed"/><stop offset="50%" stop-color="#fbfaf7"/><stop offset="100%" stop-color="#eef4ef"/></linearGradient><filter id="blur"><feGaussianBlur stdDeviation="30"/></filter><filter id="shadow" x="-20%" y="-20%" width="140%" height="140%"><feDropShadow dx="0" dy="8" stdDeviation="10" flood-color="#243746" flood-opacity=".12"/></filter></defs><rect width="1280" height="720" fill="url(#bg)"/><g opacity=".26" filter="url(#blur)"><circle cx="640" cy="360" r="310" fill="#e4bd6d"/></g><g filter="url(#shadow)"><circle cx="640" cy="355" r="175" fill="#fbfbf8" stroke="#2c4152" stroke-width="6"/><circle cx="640" cy="355" r="82" fill="#d8e9ef"/><path d="M640 195 L682 355 L640 395 L598 355Z" fill="#d77665"/><path d="M640 515 L682 355 L640 315 L598 355Z" fill="#2c4152"/></g><g filter="url(#shadow)"><circle cx="255" cy="210" r="92" fill="#dcead9"/><circle cx="230" cy="205" r="22" fill="#e3b58e"/><circle cx="280" cy="205" r="22" fill="#e3b58e"/><path d="M210 250 Q255 285 300 250" fill="none" stroke="#7c9f77" stroke-width="12"/><circle cx="1025" cy="210" r="92" fill="#f5dfd6"/><path d="M1025 265V160" stroke="#799b72" stroke-width="9"/><path d="M1025 205q-50-55-70-5q45 10 70 5M1025 230q50-55 70-5q-45 10-70 5" fill="#8cab82"/><circle cx="255" cy="530" r="92" fill="#e6def0"/><path d="M200 525 L250 570 L310 495" fill="none" stroke="#816b97" stroke-width="14" stroke-linecap="round"/><circle cx="1025" cy="530" r="92" fill="#dceaf0"/><path d="M970 560 Q1020 500 1090 475" fill="none" stroke="#6e9fb6" stroke-width="12" stroke-linecap="round"/></g></svg>