<svg xmlns="http://www.w3.org/2000/svg" viewBox="0 0 1280 720"><defs><linearGradient id="bg" x1="0" y1="0" x2="1" y2="1"><stop offset="0%" stop-color="#f8f4ed"/><stop offset="50%" stop-color="#fbfaf7"/><stop offset="100%" stop-color="#eef4ef"/></linearGradient><filter id="blur"><feGaussianBlur stdDeviation="30"/></filter></defs><rect width="1280" height="720" fill="url(#bg)"/><g opacity=".3" filter="url(#blur)"><circle cx="260" cy="360" r="220" fill="#db8071"/><circle cx="1025" cy="300" r="230" fill="#e3bb69"/></g><path d="M470 270 H260 V210 L100 360 L260 510 V450 H470Z" fill="#ce6f60" opacity=".78"/><ellipse cx="650" cy="291.5" rx="36.1" ry="39.9" fill="#4a352d"/><circle cx="674.7" cy="258.25" r="17.1" fill="#4a352d"/><ellipse cx="650" cy="302.9" rx="32.3" ry="36.1" fill="#e3b58e"/><rect x="591.1" y="342.8" width="117.8" height="140.6" rx="28.5" fill="#5b9c99"/><rect x="602.5" y="467.25" width="41.8" height="91.2" rx="17.1" fill="#2c4152"/><rect x="655.7" y="467.25" width="41.8" height="91.2" rx="17.1" fill="#2c4152"/><path d="M607.25 372.25 L581.6 441.6M692.75 372.25 L718.4 441.6" fill="none" stroke="#e3b58e" stroke-width="11.4" stroke-linecap="round"/><path d="M735 475 Q835 430 900 360 T1085 190" fill="none" stroke="#dcae53" stroke-width="18" stroke-linecap="round" stroke-dasharray="1 55"/><circle cx="1085" cy="190" r="52" fill="#e0ad47" opacity=".75"/><path d="M1030 185 L1085 130 L1140 185" fill="none" stroke="#fff8e7" stroke-width="12" stroke-linecap="round" stroke-linejoin="round"/></svg>