<svg xmlns="http://www.w3.org/2000/svg" viewBox="0 0 1280 720"><defs><linearGradient id="bg" x1="0" y1="0" x2="1" y2="1"><stop offset="0%" stop-color="#f8f4ed"/><stop offset="50%" stop-color="#fbfaf7"/><stop offset="100%" stop-color="#eef4ef"/></linearGradient><filter id="blur"><feGaussianBlur stdDeviation="30"/></filter><filter id="shadow" x="-20%" y="-20%" width="140%" height="140%"><feDropShadow dx="0" dy="8" stdDeviation="10" flood-color="#243746" flood-opacity=".12"/></filter></defs><rect width="1280" height="720" fill="url(#bg)"/><g opacity=".22" filter="url(#blur)"><circle cx="250" cy="380" r="220" fill="#8bb9cb"/><circle cx="1020" cy="310" r="245" fill="#a9c5a3"/></g><path d="M120 560 Q250 450 380 505 T650 420 T900 320 T1130 190" fill="none" stroke="#d8aa51" stroke-width="18" stroke-linecap="round" stroke-dasharray="3 42"/><g filter="url(#shadow)"><circle cx="190" cy="525" r="68" fill="#f3d9d2"/><path d="M160 530 Q190 475 220 530" fill="none" stroke="#c87061" stroke-width="10"/><circle cx="440" cy="475" r="68" fill="#dcebf1"/><path d="M410 480 L438 508 L474 445" fill="none" stroke="#6d9fb4" stroke-width="10" stroke-linecap="round"/><circle cx="700" cy="390" r="68" fill="#e6def0"/><circle cx="680" cy="385" r="18" fill="#e3b58e"/><circle cx="720" cy="385" r="18" fill="#e3b58e"/><path d="M660 420 Q700 450 740 420" fill="none" stroke="#806b95" stroke-width="10"/><circle cx="940" cy="285" r="68" fill="#f6e7bd"/><path d="M910 315 V255 H970 V315Z" fill="#d9a84d"/><path d="M900 260 L940 225 L980 260" fill="none" stroke="#9b773d" stroke-width="8"/><circle cx="1135" cy="180" r="72" fill="#dce9da"/><path d="M1100 185 L1128 212 L1170 150" fill="none" stroke="#789c73" stroke-width="11" stroke-linecap="round"/></g><ellipse cx="580" cy="434.6" rx="22.04" ry="24.36" fill="#4a352d"/><circle cx="595.08" cy="414.3" r="10.44" fill="#4a352d"/><ellipse cx="580" cy="441.56" rx="19.72" ry="22.04" fill="#e3b58e"/><rect x="544.04" y="465.92" width="71.92" height="85.84" rx="17.4" fill="#5b9c99"/><rect x="551" y="541.9" width="25.52" height="55.68" rx="10.44" fill="#2c4152"/><rect x="583.48" y="541.9" width="25.52" height="55.68" rx="10.44" fill="#2c4152"/><circle cx="573.62" cy="439.24" r="1.74" fill="#2c4152"/><circle cx="586.38" cy="439.24" r="1.74" fill="#2c4152"/><path d="M574.2 449.1 Q580 453.16 585.8 449.1" fill="none" stroke="#7b5543" stroke-width="1.16"/><path d="M553.9 483.9 L538.24 526.24" fill="none" stroke="#e3b58e" stroke-width="6.96" stroke-linecap="round"/><path d="M606.1 483.9 L621.76 526.24" fill="none" stroke="#e3b58e" stroke-width="6.96" stroke-linecap="round"/></svg>